<svg width="4606" height="2948" viewBox="0 0 4606 2948" fill="none" xmlns="http://www.w3.org/2000/svg">
<path d="M4422.47 825.182C4755.75 1180.54 4559.67 1952.89 4422.47 2133.4C4285.27 2313.91 4287.56 2318.94 3823.95 2643.48C3348.52 2976.28 2854.41 3033.42 2331.35 2829.02C1452.38 2485.52 1445.85 2894.43 838.747 2773.04C572.618 2719.83 400.859 2541.59 282.526 2318.94C164.193 2096.29 -418.9 920.783 546.63 774.866C1316.65 678.008 1733.39 886.819 1892.88 526.431C2045.9 180.672 2170.71 5.03843e-05 2558.87 0C2947.02 -5.03843e-05 3482.47 224.711 3823.95 371.08C4186.38 526.431 4089.2 469.825 4422.47 825.182Z" fill="#C1DCBD"/>
</svg>
