<svg width="4594" height="2716" viewBox="0 0 4594 2716" fill="none" xmlns="http://www.w3.org/2000/svg">
<path d="M4461 1234.5C4794.28 1589.86 4504.76 2103.92 4147.5 2426.48C3821.14 2721.13 3482.63 2606.09 3046.5 2662C2658.4 2711.75 2046 2715.5 2046 2715.5C2046 2715.5 1383.85 2677.43 776.748 2556.04C510.618 2502.83 338.859 2324.58 220.526 2101.94C102.193 1879.29 -284.802 532.39 378 154.08C603.577 25.327 1138.5 7.6294e-05 1472 0C1850.11 -8.64983e-05 1775.82 424.708 2046 608.182C2338.44 806.775 2543.27 875.98 2893 927.5C3473.23 1012.98 4127.72 879.143 4461 1234.5Z" fill="#C1DCBD"/>
</svg>
