<svg width="4346" height="2509" viewBox="0 0 4346 2509" fill="none" xmlns="http://www.w3.org/2000/svg">
<path d="M4176 367C4509.28 722.357 4309.42 1980.11 3929 2275C3461.78 2637.17 3033.14 1904.93 2494.5 2148.5C2197.24 2282.92 1560.5 2426.48 1560.5 2426.48C1560.5 2426.48 1094.11 2670.6 847 2315C669.729 2059.9 729.709 1933.07 693.5 1534.5C641.856 966.029 -449.802 532.39 213 154.08C438.577 25.327 973.5 7.6294e-05 1307 0C1685.11 -8.64983e-05 1477.32 297.026 1747.5 480.5C2039.94 679.093 2458.27 728.98 2808 780.5C3388.23 865.978 3842.72 11.6434 4176 367Z" fill="#C1DCBD"/>
</svg>
