<svg width="4386" height="2181" viewBox="0 0 4386 2181" fill="none" xmlns="http://www.w3.org/2000/svg">
<path d="M4165 108C4498.28 463.356 4492.17 1547.63 3884.5 1989.5C3475.04 2287.24 3136.05 2140.53 2630.5 2167.47C2208.94 2189.94 1549.5 2167.47 1549.5 2167.47C1549.5 2167.47 1040.98 2199.45 749 2083C452.283 1964.66 138.209 1981.07 102 1582.5C50.3563 1014.03 -32.1482 921.465 15.0002 535C56.8361 192.08 175.928 148.93 395.5 108C682.5 54.4999 947.848 218.171 1182.5 535C1429.5 868.5 2557.75 1100.06 2984 621.5C3204 374.5 3831.72 -247.357 4165 108Z" fill="#C1DCBD"/>
</svg>
