<svg width="83" height="83" viewBox="0 0 83 83" fill="none" xmlns="http://www.w3.org/2000/svg">
<circle cx="41.5" cy="41.5" r="40" stroke="#60825B" stroke-width="3"/>
<path d="M40.1879 33.1C39.3266 33.1 38.5539 33.3787 37.8699 33.936C37.2112 34.4933 36.7806 35.418 36.5779 36.71H31.9039C32.1066 34.9367 32.6006 33.48 33.3859 32.34C34.1966 31.2 35.1972 30.3513 36.3879 29.794C37.6039 29.2367 38.9212 28.958 40.3399 28.958C41.8599 28.958 43.1899 29.262 44.3299 29.87C45.4952 30.478 46.3946 31.3267 47.0279 32.416C47.6612 33.48 47.9779 34.734 47.9779 36.178C47.9779 37.3687 47.6739 38.5467 47.0659 39.712C46.4832 40.8773 45.4319 42.2453 43.9119 43.816L37.9839 49.934H48.7379V54H31.8659V50.466L40.1879 41.612C41.0999 40.6493 41.7712 39.864 42.2019 39.256C42.6579 38.648 42.9492 38.1287 43.0759 37.698C43.2279 37.242 43.3039 36.7733 43.3039 36.292C43.3039 35.3293 43.0379 34.5567 42.5059 33.974C41.9992 33.3913 41.2266 33.1 40.1879 33.1Z" fill="#60825B"/>
</svg>
