<svg width="83" height="83" viewBox="0 0 83 83" fill="none" xmlns="http://www.w3.org/2000/svg">
<circle cx="41.5" cy="41.501" r="40" stroke="#60825B" stroke-width="3"/>
<path d="M37.3759 43.361V39.637H39.9979C41.0366 39.637 41.8726 39.333 42.5059 38.725C43.1392 38.117 43.4559 37.3063 43.4559 36.293C43.4559 35.3303 43.1519 34.5576 42.5439 33.975C41.9612 33.3923 41.1126 33.101 39.9979 33.101C39.0099 33.101 38.1739 33.367 37.4899 33.899C36.8059 34.4056 36.3626 35.2163 36.1599 36.331H31.4859C31.8406 34.0003 32.7906 32.189 34.3359 30.897C35.8812 29.605 37.7939 28.959 40.0739 28.959C41.6699 28.959 43.0759 29.263 44.2919 29.871C45.5079 30.479 46.4452 31.3276 47.1039 32.417C47.7879 33.481 48.1299 34.7223 48.1299 36.141C48.1299 38.4716 47.2052 40.207 45.3559 41.347C46.4452 41.9043 47.2812 42.677 47.8639 43.665C48.4719 44.6276 48.7759 45.7423 48.7759 47.009C48.7759 48.4276 48.4339 49.6943 47.7499 50.809C47.0659 51.9236 46.0779 52.7976 44.7859 53.431C43.4939 54.0643 41.9359 54.381 40.1119 54.381C37.5786 54.381 35.5646 53.7603 34.0699 52.519C32.6006 51.2523 31.6886 49.441 31.3339 47.085H36.0839C36.2612 48.0223 36.6666 48.795 37.2999 49.403C37.9586 49.9856 38.9086 50.277 40.1499 50.277C41.3912 50.277 42.3539 49.973 43.0379 49.365C43.7472 48.757 44.1019 47.9336 44.1019 46.895C44.1019 45.8056 43.7472 44.9443 43.0379 44.311C42.3286 43.6776 41.4166 43.361 40.3019 43.361H37.3759Z" fill="#60825B"/>
</svg>
