<svg width="2250" height="6160" viewBox="0 0 2250 6160" xmlns="http://www.w3.org/2000/svg">
<path d="M646.896 1316.21C407.673 964.607 191.534 149.048 646.896 -411H3502.83V2115.68C3147.65 2172.79 2483.44 2471.88 2483.44 2471.88C2483.44 2471.88 790.99 2920 825.231 2110.59C838.67 1792.92 886.118 1667.8 646.896 1316.21Z" fill="#C1DCBD"/>
<path d="M337.496 2975.5C891.979 3017.45 653.818 3716.52 1243.26 4195.91C1832.7 4675.3 3064.26 5000.91 3064.26 5000.91C3064.26 5000.91 3333.5 6159.5 1617 6159.5C-99.505 6159.5 -1132 5666.5 -1132 5666.5C-1132 5666.5 -2028.13 3376.64 -1488.25 3255.41C-976.507 3140.51 -131.067 2940.05 337.496 2975.5Z" fill="#C1DCBD"/>
</svg>
