<svg width="1185" height="1425" viewBox="0 0 4738 5917" fill="none" xmlns="http://www.w3.org/2000/svg">
<path d="M3487 4667C4308.78 4667 4554.77 4954.85 4554.77 5426.28C4554.77 5897.7 3934.5 5916.92 3934.5 5916.92L1397.21 5916.92C-217.071 5916.92 -112.179 4618.78 434.703 4374.78C809.995 4207.33 1410.65 4200 1619.02 4200C2774 4200 2417.5 4667 3487 4667Z" fill="#C1DCBD"/>
<path id="first" transform="skewX(0)" d="M4543.5 184.5C4835 467 4752.5 2576.5 4679.5 2878C4606.5 3179.5 4562.5 3518 3998 3518C3505.14 3518 2770.5 3108.5 2358 3108.5C1575.32 3108.5 1336 3399.5 724 3310.5C227.558 3238.3 -1.00004 2886.5 -1 2621C-0.999962 2355.5 23.4998 1636 868 1520C1541.5 1443 1906 1609 2045.5 1322.5C2179.34 1047.63 1808 882.5 1855.5 491C1903 99.4999 2242 14.5171 2562.5 9.4999C2953.32 3.38186 4252 -98.0001 4543.5 184.5Z" fill="#C1DCBD"> 
    <animateTransform  
    additive="sum"
    attributeName="transform"
    type="scale"
    values="1;0.95"
    keySplines="0.1 0.2 .22 1"
    dur="1s"

    />
</path>
</svg>
