<svg width="2868" height="1836" viewBox="0 0 2868 1836" fill="none" xmlns="http://www.w3.org/2000/svg">
<path d="M2753.72 513.919C2961.24 735.234 2839.15 1216.25 2753.72 1328.67C2668.3 1441.09 2669.72 1444.22 2381.04 1646.34C2085.01 1853.61 1777.35 1889.2 1451.65 1761.9C904.346 1547.97 900.282 1802.63 522.26 1727.04C356.55 1693.9 249.602 1582.89 175.919 1444.22C102.237 1305.56 -260.835 573.459 340.368 482.583C819.835 422.26 1079.32 552.307 1178.63 327.859C1273.91 112.522 1351.63 3.13791e-05 1593.32 0C1835.01 -3.13791e-05 2168.42 139.949 2381.04 231.107C2606.72 327.859 2546.2 292.605 2753.72 513.919Z" fill="#C1DCBD"/>
</svg>
