<?xml version="1.0" encoding="utf-8"?>
<!-- Generator: Adobe Illustrator 22.0.0, SVG Export Plug-In . SVG Version: 6.00 Build 0)  -->
<svg version="1.1" id="Слой_3" xmlns="http://www.w3.org/2000/svg" xmlns:xlink="http://www.w3.org/1999/xlink" x="0px" y="0px"
	 viewBox="0 0 284 330" style="enable-background:new 0 0 284 330;" xml:space="preserve">
<style type="text/css">
	#Слой_3 .st0{clip-path:url(#SVGID_2_);}
	#Слой_3 .st1{fill:#BDF0F4;}
	#Слой_3 .st2{fill:#A5EEF4;}
	#Слой_3 .st3{fill:#EDD6AE;}
	#Слой_3 .st4{fill:#F2DBB3;}
	#Слой_3 .st5{fill:#F7E9CE;}
	#Слой_3 .st6{fill:#EFDEDE;}
	#Слой_3 .st7{fill:#9EDCF3;}
	#Слой_3 .st8{fill:#ADDAE6;}
	#Слой_3 .st9{fill:#D2FEFF;}
	#Слой_3 .st10{fill:#CDE5E7;}
	#Слой_3 .st11{fill:#81D0ED;}
	#Слой_3 .st12{clip-path:url(#SVGID_4_);}
	#Слой_3 .st13{fill:#94BBC2;}
	#Слой_3 .st14{fill:#62A4AF;}
	#Слой_3 .st15{fill:url(#SVGID_5_);}
	#Слой_3 .st16{fill:#60825B;}
	#Слой_3 .st17{opacity:0.3;fill:#336F72;enable-background:new    ;}
	#Слой_3 .st18{opacity:0.4;fill:#537C62;enable-background:new    ;}
	#Слой_3 .st19{opacity:0.4;fill:url(#SVGID_6_);enable-background:new    ;}
	#Слой_3 .st20{opacity:0.1;fill:#3E8989;enable-background:new    ;}
	#Слой_3 .st21{opacity:0.7;fill:#85BCC9;enable-background:new    ;}
	#Слой_3 .st22{fill:#F4DEB7;}
	#Слой_3 .st23{opacity:0.6;fill:#B1D2DA;enable-background:new    ;}
	#Слой_3 .st24{opacity:0.4;fill:#FDF9F0;enable-background:new    ;}
	#Слой_3 .st25{fill:url(#SVGID_7_);filter:url(#Adobe_OpacityMaskFilter);}
	#Слой_3 .st26{mask:url(#mask0_1_);}
	#Слой_3 .st27{opacity:0.5;fill:url(#SVGID_8_);enable-background:new    ;}
	#Слой_3 .st28{fill:#FDF9F0;}
</style>
<g id="glass">
	<defs>
		
			<rect id="SVGID_1_" x="64.2" y="143.6" transform="matrix(0.9445 -0.3286 0.3286 0.9445 -66.0456 45.6784)" width="75.8" height="149.3"/>
	</defs>
	<clipPath id="SVGID_2_">
		<use xlink:href="#SVGID_1_"  style="overflow:visible;"/>
	</clipPath>
	<g class="st0">
		<path class="st1" d="M89.9,183.5l-2-5.7c-15.3,5.3-29.3,5.9-36.3,2.3l8.7,24.9C62.3,197.8,74.3,189,89.9,183.5z"/>
		<path class="st2" d="M87.9,177.8l2,5.7c15.9-5.5,30.7-6,36.7-1.3l-8.8-25.2C114.6,164.2,103.2,172.5,87.9,177.8z"/>
		<path class="st3" d="M89.9,183.5l9.5,27.4c15.9-5.5,27.8-14.3,29.7-21.4l-2.6-7.3C120.6,177.5,105.8,178,89.9,183.5z"/>
		<path class="st3" d="M99.4,211l-9.5-27.4C74,189.1,62,197.9,60.3,205.3l2.6,7.3C69,216.9,83.8,216.4,99.4,211z"/>
		<path class="st4" d="M117,261.4l8.7,24.9c19.7-6.9,30.9-17.9,28.8-24C152.3,256.2,137,254.4,117,261.4z"/>
		<path class="st5" d="M88.2,285.3c2.1,6.1,17.7,7.8,37.4,0.9l-8.7-24.9C97.2,268.2,86.1,279.3,88.2,285.3z"/>
		<path class="st5" d="M153.2,257.3l-24.9-66.8c-15.9,5.5-59.6,26.4-65.4,22l23.4,67.3C89.7,272.3,137.9,262.7,153.2,257.3z"/>
		<path class="st4" d="M123.5,197.3c-1.6,3.9,13,56.9,13,56.9c15-3.2,9.2-1.5,16.2,2.1L129.3,189
			C127.6,196.4,125.1,193.4,123.5,197.3z"/>
		<path class="st6" d="M117,261.4l-0.9-2.6c-15.3,5.3-26.7,13.6-29.9,20.8l2,5.7C86.1,279.3,97.2,268.2,117,261.4z"/>
		<path class="st6" d="M116.1,258.8l0.9,2.6c19.7-6.9,35.3-5.1,37.4,0.9l-2-5.7C145.4,252.9,131.3,253.5,116.1,258.8z"/>
		<path class="st7" d="M129.3,185.2l25.2,72.4c1.4,0.9,2.2,2.1,2.7,3.7l-38.6-111c0.4,1.3,0.7,3,0.2,4.6L129.3,185.2z"/>
		<path class="st7" d="M156,261.8c2.7,7.7-10.5,19-29.6,25.7l0.4,1.3c20.1-7,33.3-19.1,30.4-27.4L156,261.8z"/>
		<path class="st8" d="M86.9,285.8l-1.3,0.4c2.9,8.3,20.8,9.6,40.9,2.6l-0.4-1.3C107.3,294.1,89.6,293.4,86.9,285.8z"/>
		<path class="st8" d="M60.3,209.2l-10.5-30.3c-1.4-0.9-2.3-2.4-2.7-3.7l38.6,111c-0.4-1.3-0.7-3-0.2-4.6L60.3,209.2z"/>
		<path class="st7" d="M126.7,181.8c1.4,0.9,2.2,2.1,2.6,3.4l-10.5-30.3c-0.1,0.7-0.3,1.2-0.7,2L126.7,181.8z"/>
		<path class="st8" d="M51.6,180.1c-0.9-0.4-1.4-0.9-1.8-1.2l10.5,30.3c-0.4-1.3-0.6-2.7-0.1-4.3L51.6,180.1z"/>
		<path class="st8" d="M60.2,204.9c-0.5,1.6-0.4,3,0.1,4.3c0.4,1.3,1.2,2.4,2.6,3.4L60.2,204.9z"/>
		<path class="st7" d="M129.3,189.1c0.5-1.6,0.4-3,0.1-4c-0.4-1.3-1.2-2.4-2.6-3.4L129.3,189.1z"/>
		<path class="st8" d="M62.8,212.3c-1.4-0.9-2.2-2.1-2.6-3.4l25.3,72.7c0.1-0.7,0.2-1.5,0.7-2L62.8,212.3z"/>
		<path class="st7" d="M152.7,256.5c0.9,0.4,1.3,0.6,1.8,1.2l-25.2-72.4c0.4,1.3,0.6,2.7-0.1,4L152.7,256.5z"/>
		<path class="st7" d="M125.6,286.3l0.4,1.3c19.1-6.6,32.3-18,29.6-25.7l-1.3,0.4C156.8,268.3,145.7,279.3,125.6,286.3z"/>
		<path class="st8" d="M88.2,285.3l-1.3,0.4c2.7,7.7,20.4,8.3,39.2,1.8l-0.4-1.3C105.9,293.1,90.3,291.4,88.2,285.3z"/>
		<path class="st8" d="M85.5,281.6c-0.5,1.6-0.3,3.3,0.2,4.6l1.3-0.4L85.5,281.6z"/>
		<path class="st7" d="M156,261.8l1.3-0.4c-0.4-1.3-1.3-2.8-2.7-3.7L156,261.8z"/>
		<path class="st7" d="M154.7,262.2l1.3-0.4l-1.4-4.1c-0.5-0.5-1-0.7-1.8-1.2L154.7,262.2z"/>
		<path class="st8" d="M86.2,279.6c-0.4,0.9-0.6,1.3-0.7,2l1.4,4.1l1.3-0.4L86.2,279.6z"/>
		<path class="st9" d="M49.4,172.9l33.1-11.5l-3.9-11.2C59.9,156.8,49,166.6,49.4,172.9z"/>
		<path class="st9" d="M115.3,150c-3.6-5.2-18.5-6.1-37,0.4l3.9,11.2L115.3,150z"/>
		<path class="st9" d="M87,175.2l-3.9-11.2l-32.8,11.4C53.9,180.7,68.5,181.7,87,175.2z"/>
		<path class="st9" d="M87,175.2c18.5-6.4,29.3-16.3,29.2-22.7l-33.1,11.5L87,175.2z"/>
		<path class="st9" d="M82.2,161.5l-32.8,11.4c0.1,0.3,0,1.1,0.1,1.4l33.1-11.5L82.2,161.5L82.2,161.5z"/>
		<path class="st10" d="M82.7,162.8l33.1-11.5c-0.1-0.3-0.3-1-0.8-1.2l-32.8,11.4L82.7,162.8z"/>
		<path class="st9" d="M82.7,162.8l-33.1,11.5c0.1,0.3,0.3,1,0.8,1.2L83.4,164l-0.4-1.3L82.7,162.8z"/>
		<path class="st9" d="M83.1,164.1l33.1-11.5c-0.1-0.3,0-1.1-0.1-1.4l-33.4,11.6L83.1,164.1z"/>
		<path class="st8" d="M77.9,149.1l-0.4-1.3c-18.8,6.5-32,17.9-30.9,26.1l1.3-0.4C47.3,165.8,60.1,155.3,77.9,149.1z"/>
		<path class="st7" d="M77.9,149.1c17.8-6.2,34.7-6,38.7,0.5l1.3-0.4c-3.9-7.2-21.3-8-40.4-1.3L77.9,149.1z"/>
		<path class="st8" d="M87.9,177.8l-0.4-1.3c-15.9,5.5-30.7,6-36.7,1.3l0.7,1.9C58.8,183.6,72.6,183.1,87.9,177.8z"/>
		<path class="st7" d="M87.4,176.5l0.4,1.3c15.3-5.3,26.7-13.6,29.9-20.8l-0.7-1.9C115.3,162.2,103.3,171,87.4,176.5z"/>
		<path class="st8" d="M48.3,174.8c-0.1-0.3-0.3-1-0.1-1.4l-1.6,0.6c0.1,0.3,0.3,1,0.4,1.3c0.4,1.3,1.3,2.8,2.7,3.7L48.3,174.8z"/>
		<path class="st7" d="M116.6,149.6c0.1,0.3,0.7,0.8,0.8,1.2l1.4,4.1c0.5-1.6,0.4-3-0.2-4.6c-0.1-0.3-0.3-1-0.4-1.3L116.6,149.6z"/>
		<path class="st8" d="M50.9,178.1c-1.1-1.1-2.2-2.1-2.6-3.4l1.4,4.1c0.5,0.5,1.1,1.1,1.8,1.2L50.9,178.1z"/>
		<path class="st7" d="M118.1,156.9c0.1-0.7,0.5-1.6,0.7-2l-1.4-4.1c0.4,1.3,0.6,2.7-0.1,4L118.1,156.9L118.1,156.9z"/>
		<path class="st7" d="M77.9,149.1l0.4,1.3c18.5-6.4,33.1-5.4,37-0.4l1.3-0.4C112.6,143.1,96,142.8,77.9,149.1z"/>
		<path class="st8" d="M78.3,150.4l-0.4-1.3c-17.8,6.2-30.6,16.7-29.7,24.3l1.3-0.4C49,166.6,59.9,156.8,78.3,150.4z"/>
		<path class="st11" d="M87.4,176.5l-0.4-1.3c-18.5,6.4-33.1,5.4-37,0.4l0,0l0.8,2.2C57,182.4,71.8,181.9,87.4,176.5z"/>
		<path class="st7" d="M87,175.2l0.4,1.3c15.9-5.5,27.8-14.3,29.6-21.7l-0.8-2.2l-0.3,0.1C116.6,158.9,105.5,168.8,87,175.2z"/>
		<path class="st8" d="M49.4,172.9l-1.3,0.4c0.1,0.3,0,1.1,0.1,1.4l1.3-0.4C49.4,174,49.2,173.4,49.4,172.9z"/>
		<path class="st7" d="M116.1,151.2l1.3-0.4c-0.1-0.3-0.3-1-0.8-1.2l-1.3,0.4C115.4,150.3,116,150.9,116.1,151.2z"/>
		<path class="st7" d="M116.1,151.2c0.1,0.3,0.3,1,0.1,1.4l0.3-0.1l0.8,2.2c0.5-1.6,0.5-2.7,0.1-4L116.1,151.2L116.1,151.2z"/>
		<path class="st8" d="M50.9,178.1l-0.9-2.6l0.3-0.1c-0.1-0.3-0.7-0.8-0.8-1.2l-1.3,0.4C48.7,176,49.8,177.1,50.9,178.1z"/>
	</g>
</g>
<g id="bottle">
	<defs>
		
			<rect id="SVGID_3_" x="52.4" y="141.9" transform="matrix(0.2933 -0.956 0.956 0.2933 -59.0084 300.6355)" width="242.8" height="96.6"/>
	</defs>
	<clipPath id="SVGID_4_">
		<use xlink:href="#SVGID_3_"  style="overflow:visible;"/>
	</clipPath>
	<g class="st12">
		<path class="st13" d="M186.2,301.6c0,0.2-1.1,4.7-4.9,6.2c-2.9,1.2-9.3,3.5-21,2.6c-2.8-0.3-5.7-0.6-9.2-1.2
			c-19.6-3.5-31.6-12.8-33-15.4c-1.1-1.8-1.1-5.7-1.1-5.7s0.1,0.2,0.6,0.7c6.6,8,18.7,14.3,37.9,17.2c1.8,0.2,3.5,0.5,5.1,0.7
			c8.2,0.6,15.1-0.6,19.9-2.5C182.8,303.3,184.7,302.4,186.2,301.6z"/>
		<path class="st14" d="M145.7,302.8c-18.7-4.7-26-11.7-27.9-13.8c6.6,8,18.7,14.3,37.9,17.2c10.2,1.5,19.2,0.2,25.1-2
			c2.3-0.8,4-1.7,5.5-2.7C186.3,301.5,169.6,308.8,145.7,302.8z"/>
		
			<linearGradient id="SVGID_5_" gradientUnits="userSpaceOnUse" x1="100.9196" y1="152.8207" x2="227.215" y2="114.081" gradientTransform="matrix(0.998 -6.380131e-02 -6.380131e-02 -0.998 10.9705 342.3023)">
			<stop  offset="0" style="stop-color:#A4D2DF"/>
			<stop  offset="1" style="stop-color:#B9E0E4"/>
		</linearGradient>
		<path class="st15" d="M196.1,291.1c-1.3,2.2-2.7,6.4-9.9,10.5c-1.6,1-3.5,1.8-5.5,2.6c-5.8,2.2-14.6,3.5-25.1,2
			c-19.2-2.9-31.3-9.2-37.9-17.2c-3.1-3.8-4.9-8-5.8-12.3c-0.2-1.4-0.4-6.3,0.2-13.7c0.7-13.4,3.2-35,9.2-61.7
			c9.1-40.4,13.7-47.4,31.2-70.5c10.4-13.6,17.5-30.8,20.2-37.2c0.5-1.4,0.9-2.2,1-2.4c3.1,2.1,14,8.8,29,9.9
			c1.3,0.1,2.6,0.2,3.9,0.2c3.6,0.1,7.3-0.3,11.2-0.9c0,0.2-0.1,1.3-0.4,3.3c-0.4,5.8-1.2,18.6,0.2,27.1c1.9,11.2,6.5,42.8,4.4,59.5
			C218.2,218.9,199.8,285,196.1,291.1z"/>
		<path class="st16" d="M225.2,85.7l-5.7,14.3c-0.6,0.1-1,0.1-1.6,0.4c-6.9,1.4-13.5,1.1-19.2,0.3c-3.8-0.5-7.4-1.4-10.6-2.5
			c-5.4-1.9-9.6-4-12.3-5.6c-0.8-0.6-1.7-1-2.2-1.3c-0.7-0.3-1-0.6-1-0.6l0.8-16.2c0,1.7,0.7,3.4,2.4,5.1c2,2,5.3,3.9,10.2,5.5
			c2.5,0.8,5.3,1.6,8.7,2.4c4.1,1,8,1.3,11.4,1.6c9.3,0.5,15.6-1.2,18-2.5C224.7,86.3,225.1,86.1,225.2,85.7z"/>
		<path class="st16" d="M225.2,85.7c-0.3,0.3-0.6,0.8-1,0.9c-3.3,1.9-13.9,4.4-29.3,1c-3.6-0.9-6.8-1.6-9.4-2.6
			c-8.6-3-12-6.6-11.9-10.4c0-1.7,4.2-5,16.2-4.5c3.5,0.3,7.8,0.7,12.8,1.9C222,76.2,226.6,82.8,225.2,85.7z"/>
		<path class="st5" d="M192,290.9c-0.2,0.1-0.3,0.5-0.5,0.6c-4.1,4.5-13.6,10.9-31.3,9c-4.1-0.4-8.4-1.2-13.1-2.8
			c-24.6-7.2-30.6-19-31.8-26.7c-0.1-0.6-0.1-1.2-0.2-1.7c-0.7-7.5,10-64.9,16.4-87.2c6.8-23.9,15.3-36.3,23.2-47.2
			c7.3-10.2,10-16.7,10-16.7c0.7-0.6,5.4,7.3,23.2,11.4c3.6,0.9,6.7,1.2,9.7,1.5c0.5,0.1,1.1,0.1,1.7,0.2c0.8,0,1.3,0.1,1.9,0.1
			c9.2,0.3,13.3-1.8,13.3-1.8c0,0.2,0,0.2,0.1,0.4c2,25.8,1.4,24.9,2.2,38.5c0.9,17-7.3,56.7-10,68.9
			C203.6,249.2,197.1,283.8,192,290.9z"/>
		<path class="st17" d="M225.2,85.7l-5.7,14.3c-0.6,0.1-1,0.1-1.6,0.4c-6.9,1.4-13.5,1.1-19.2,0.3l7.5-11.5c9.3,0.5,15.6-1.2,18-2.5
			C224.7,86.3,225.1,86.1,225.2,85.7z"/>
		<path class="st16" d="M178.9,75.8c0.9-2.8,13-3,24-0.1c10.8,3,18.5,7.4,18.1,9c-0.5,2-4.2,4.3-22.3,0.9
			C180.8,82.3,178.2,77.9,178.9,75.8z"/>
		<path class="st18" d="M185.5,84.9c-8.6-3-12-6.6-11.9-10.4c0-1.7,4.2-5,16.2-4.5C187.6,73.7,185,79.1,185.5,84.9z"/>
		
			<linearGradient id="SVGID_6_" gradientUnits="userSpaceOnUse" x1="105.6028" y1="54.0482" x2="181.2231" y2="30.8526" gradientTransform="matrix(0.998 -6.380131e-02 -6.380131e-02 -0.998 10.9705 342.3023)">
			<stop  offset="0" style="stop-color:#A4D2DF"/>
			<stop  offset="1" style="stop-color:#B9E0E4"/>
		</linearGradient>
		<path class="st19" d="M114.9,273.1c1.2,2.9,3.5,20.9,32.8,27.3c36.8,8.2,41.5-5.2,44.5-10.4c0,0-17.9,13.9-46.2,6.4
			C117.8,288.9,114.9,273.1,114.9,273.1z"/>
		<path class="st20" d="M188,98c-5.4-1.9-9.6-4-12.3-5.6l0.2-12.8c2,2,5.3,3.9,10.2,5.5L188,98z"/>
		<path class="st4" d="M192,290.9c-0.2,0.1-0.3,0.5-0.5,0.6c-4.1,4.5-13.6,10.9-31.3,9c-4.1-0.4-8.4-1.2-13.1-2.8
			c-24.6-7.2-30.6-19-31.8-26.7c5.9,8.6,14.9,14.5,27.6,18.1c27.8,7.9,45.5-45.1,51.9-74.8c5.7-27.2,4.8-66.4,4.3-83.1
			c0.8,0,1.3,0.1,1.9,0.1c7.1,0.2,11.5-0.8,13.2-1.4c2,25.8,1.4,24.9,2.2,38.5c0.9,17-7.3,56.7-10,68.9
			C203.6,249.2,197.1,283.8,192,290.9z"/>
		<path class="st21" d="M217.5,103.5c-26.1,4-40.1-5.6-44.7-9.9c0.5-1.4,0.9-2.2,1-2.4c4,2.9,21.4,13.2,44.2,9
			C217.9,100.4,217.8,101.7,217.5,103.5z"/>
		<path class="st22" d="M214,129.4c-0.5,2-12.5,3.4-25.8,0.3c-13.2-3.2-24.1-9-23.5-11.6c0.7-2.9,14.1-1.9,27.3,1.2
			C205.1,122.3,214.7,126.7,214,129.4z"/>
		<path class="st21" d="M174.9,78.5c0,0,4.7,10.4,38.4,10.9c0,0-19.9-2.1-27.3-5.2C178.6,81,174.9,78.5,174.9,78.5z"/>
		<path class="st23" d="M186.2,301.6c0,0.2-1.1,4.7-4.9,6.2c-2.9,1.2-9.3,3.5-21,2.6c0.7-1.3,0.6-2.7,0.5-3.7
			c8.2,0.6,15.1-0.6,19.9-2.5C182.8,303.3,184.7,302.4,186.2,301.6z"/>
		<path class="st24" d="M177.8,97.3c0,0-12.6,24.2-22.2,43.9c-9.8,19.6-29.5,91.3-22.9,96.1c6.6,5,16.4-42.6,24.3-67.8
			c9.3-29.6,24.3-53,28.8-68.6C185.8,101.1,180.2,99.2,177.8,97.3z"/>
		<defs>
			<filter id="Adobe_OpacityMaskFilter" filterUnits="userSpaceOnUse" x="111.8" y="100.6" width="110.8" height="206.3">
				<feColorMatrix  type="matrix" values="1 0 0 0 0  0 1 0 0 0  0 0 1 0 0  0 0 0 1 0"/>
			</filter>
		</defs>
		<mask maskUnits="userSpaceOnUse" x="111.8" y="100.6" width="110.8" height="206.3" id="mask0_1_">
			
				<linearGradient id="SVGID_7_" gradientUnits="userSpaceOnUse" x1="185.8002" y1="178.2741" x2="139.0149" y2="23.5152" gradientTransform="matrix(0.998 -6.380131e-02 -6.380131e-02 -0.998 10.9705 342.3023)">
				<stop  offset="0" style="stop-color:#FFFFFF"/>
				<stop  offset="1" style="stop-color:#808080"/>
			</linearGradient>
			<path class="st25" d="M196.1,291.1c-1.3,2.2-2.7,6.4-9.9,10.5c-1.6,1-3.5,1.8-5.5,2.7c-5.8,2.2-14.6,3.5-25.1,2
				c-19.2-2.9-31.3-9.2-37.9-17.2c-3.1-3.8-4.9-8-5.8-12.3c-0.2-1.4-0.4-6.3,0.2-13.7c3.1,17.2,12.4,30.6,34.8,34.9
				c38.7,7.5,42.9-29.9,48.8-46.8c5.9-16.9,12.4-60.2,11.7-93.5c-0.6-27.6-2.4-44.8-0.8-56.2c3.6,0.1,7.3-0.3,11.2-0.9
				c0,0.2-0.1,1.3-0.4,3.3c-0.4,5.6-1.2,18.4,0.2,26.9c1.9,11.2,6.6,43.9,4.3,60.6C218,218.4,199.8,285,196.1,291.1z"/>
		</mask>
		<g class="st26">
			
				<linearGradient id="SVGID_8_" gradientUnits="userSpaceOnUse" x1="185.8002" y1="178.2741" x2="139.0149" y2="23.5152" gradientTransform="matrix(0.998 -6.380131e-02 -6.380131e-02 -0.998 10.9705 342.3023)">
				<stop  offset="0" style="stop-color:#A4D2DF"/>
				<stop  offset="1" style="stop-color:#B9E0E4"/>
			</linearGradient>
			<path class="st27" d="M196.1,291.1c-1.3,2.2-2.7,6.4-9.9,10.5c-1.6,1-3.5,1.8-5.5,2.7c-5.8,2.2-14.6,3.5-25.1,2
				c-19.2-2.9-31.3-9.2-37.9-17.2c-3.1-3.8-4.9-8-5.8-12.3c-0.2-1.4-0.4-6.3,0.2-13.7c3.1,17.2,12.4,30.6,34.8,34.9
				c38.7,7.5,42.9-29.9,48.8-46.8c5.9-16.9,12.4-60.2,11.7-93.5c-0.6-27.6-2.4-44.8-0.8-56.2c3.6,0.1,7.3-0.3,11.2-0.9
				c0,0.2-0.1,1.3-0.4,3.3c-0.4,5.6-1.2,18.4,0.2,26.9c1.9,11.2,6.6,43.9,4.3,60.6C218,218.4,199.8,285,196.1,291.1z"/>
			<path class="st28" d="M166.3,125.6c-2.4-3.2-21.4,45.4-21.3,55.4c-0.1,10,5.5-11.4,10.4-23.8C161,142.5,167.6,127.2,166.3,125.6z
				"/>
		</g>
	</g>
</g>
</svg>
