<?xml version="1.0" encoding="utf-8"?>
<!-- Generator: Adobe Illustrator 22.0.0, SVG Export Plug-In . SVG Version: 6.00 Build 0)  -->
<svg version="1.1" id="Слой_1" xmlns="http://www.w3.org/2000/svg" xmlns:xlink="http://www.w3.org/1999/xlink" x="0px" y="0px"
	 viewBox="0 0 338 304" style="enable-background:new 0 0 338 304;" xml:space="preserve">
<style type="text/css">
	.st0{fill:#60825B;}
	.st1{fill:#EFE8DA;}
	.st2{fill:#16181E;}
	.st3{fill:#E7E6E8;}
	.st4{fill:#CEC7D1;}
	.st5{fill:#C4A87E;}
	.st6{fill:#FFFFFF;}
	.st7{fill:#DDC399;}
	.st8{fill:#EFD8AE;}
	.st9{fill:#FDBCC2;}
	.st10{fill:#F4AEB7;}
	.st11{fill:#BF6B79;}
</style>
<path class="st0" d="M148.7,299.7c75.4,0,136.5-6.9,136.5-15.5s-61.1-15.5-136.5-15.5s-136.5,6.9-136.5,15.5
	C12.1,292.8,73.3,299.7,148.7,299.7z"/>
<g id="tail">
	<path class="st1" d="M14.4,165.4c-4,14.9-1.9,56.4,2.2,54.4c4.1-2-1.9-39.3,4.3-48.8c7.3-11.4,14.8-10,14.8-10l0.7-15
		C36.1,146,18.4,150.5,14.4,165.4z"/>
	<path class="st2" d="M17.9,210.6c-0.9,0.9-1-1.7-1.6-3.1c-0.5-1.4-0.6,3.8-1.3,4.7s-1.8-2.7-1.8-2.7s-7.9,7-4.3,17.7
		c3.6,10.8,10.9,11.3,12,11.8c1.3,0.7-1.1-2.2-1.8-5.2c-0.6-3.1,3.2-8.4,3.5-14.3C22.9,213.7,18.9,209.6,17.9,210.6z"/>
</g>
<path class="st3" d="M184.4,227.1c0,0-1.5,63.4,24.9,59.4c19.6-3.1,18.8-69.6,18.8-69.6L184.4,227.1z"/>
<path class="st4" d="M184.4,227.1c0,0-1.5,63.4,24.9,59.4c1-0.2,2-0.6,3.1-1c-5-10.7-2.9-28.6,0.2-38.5c2-6.6,9.1-10.5,15.1-12.5
	c0.6-9.8,0.6-17.5,0.6-17.5L184.4,227.1z"/>
<path class="st5" d="M215.9,270.1c-5.3,1.8-24.1,3.9-24.1,3.9c0.2,11.5,11.8,16.7,19,16.7c7,0,4.5-2.7,5.2-3.1
	c0.6-0.4,9.1,3.7,15.1-0.8c6-4.5-7.6-18.3-8.3-19C222.3,267.2,221.3,268,215.9,270.1z"/>
<path class="st3" d="M79,228.7c0,0,3.3,50.1,20.6,55.1c17.3,5,22.4-43.6,20.2-56.6C117.8,214.1,79,228.7,79,228.7z"/>
<path class="st4" d="M79,228.7c0,0,3.3,50.1,20.6,55.1c2.3,0.6,4.1,0.4,6-0.6c-8-6.8-10.9-21.4-6.8-29.2c3.5-6.6,14.4-7,20.8-6.6
	c1-8.5,1-16.3,0.2-20.3C117.8,214.1,79,228.7,79,228.7z"/>
<path class="st5" d="M116.7,264.9c-1.2-0.4-8,4.3-16.1,5.2c-8,0.8-14-1.8-14-1.8c-1,8,7,19.3,13.4,20.8c6.6,1.5,9.1-2.7,9.9-2.7
	c0.8-0.2,9.5,2.3,16.1-2.3C132.8,279.3,117.9,265.4,116.7,264.9z"/>
<path class="st6" d="M214.5,108.8c0,0-17.9,23.5-56.9,16.3c-39-7.2-104-15.5-120.2,18.7c-16.2,33.9-6.5,117.5,21.1,141.1
	c0,0,9.7,6.6,17.9,0c8-6.6,9.7-43,9.7-43s42.3,1.7,76.3,0.8c0,0,6.6,46.3,20.4,47.1c13.8,0.8,20.2-10.5,21.1-19.5
	c0.8-8.8,4.1-30.8,9.7-34.8c5.8-4.1,31.7-18.7,43.1-58.4C268.1,137.2,252.8,107.9,214.5,108.8z"/>
<path class="st1" d="M48.9,173.4c-0.8-26.7,13.6-44,23.7-52.6c-15.9,3.1-28.9,10.1-35.1,22.8C21.3,177.5,30.9,261,58.6,284.7
	c0,0,9.7,6.6,17.9,0c1.5-1,2.7-3.1,3.7-5.8c-2.7-0.6-6.3-1.2-11.1-2.7C55.3,272.1,50.1,213.9,48.9,173.4z"/>
<path class="st7" d="M68.6,272.9c-9.3,3.1-18.8,1.2-18.8,1.2s0.6,14,9.1,17.9c8.5,3.9,15.9-2.7,16.5-2.9c0.6-0.2,9.7,5.8,14.8,0.2
	c5.2-5.6-6.8-18.7-7.5-20.3C82.2,267.4,77.9,269.9,68.6,272.9z"/>
<path class="st3" d="M227.2,147.9c0,0-12.6,35.8-21.1,49.6c-7.2,11.7-9.7,38.6,1.8,49.6c1.5-5.3,3.3-10.1,5.8-11.5
	c5.8-4.1,31.7-18.7,43.1-58.4c3.5-12.5,4.5-23.8,2.9-33.8C244.4,143.6,227.2,147.9,227.2,147.9z"/>
<path class="st2" d="M158.4,124.2c-19.4-3.7-46.8-9.3-68.9-5.5c0.2,6.3,0.6,13,3.1,18.7c2.7,6.3,8.3,12.3,15.1,13.2
	c5.2,0.6,10.9-1.5,15.6,0.8c4.5,2,6.8,7,10.5,10.3c7,6.6,19.6,5.8,25.8-1.5c5.2-6,6.2-15,12.6-19.5c2.5-1.8,5.8-2.7,7.5-5.3
	c1.2-1.8,1.5-4.3,1.5-6.6c0-1,0-2,0-3.1C173.4,126.3,167.3,125.9,158.4,124.2z"/>
<path class="st2" d="M58.1,174.4c-3.1-3.7-4.3-8.6-3.5-13.2c0.6-3.9,2.9-8.2,1-11.7c-2-4.1-7.6-4.5-11.8-6.2
	c-1.7-0.6-3.3-1.7-4.5-2.9c-0.6,1-1.2,2.3-1.8,3.3c-5.6,10.1-11.1,28.6-7.5,58.6c4.5-2,8.8-4.7,13.6-6c6.3-1.5,13-0.2,19.4-0.8
	c1.5,0,2.7-0.2,4-1c3.7-2.3,3.1-8,0.6-11.3C64.8,180,60.8,177.7,58.1,174.4z"/>
<path class="st2" d="M113.8,173.4c-0.6-4.5-2-9.8-6.2-12c-4.8-2.5-10.9,0.8-15.9-1.2c-1-0.4-2-1-3.3-1c-2.7,0-3.7,3.3-4.1,5.8
	c-0.2,1-0.4,2.3-0.4,3.3c-0.4,2.9-0.8,5.5-1,8.5c0,1-0.2,2.3,0.2,3.1c0.6,1.8,2.7,2.9,4.5,3.3c1.8,0.4,4,0.4,5.8,1.2
	c4.1,1.5,6.3,5.8,9.9,8.2c4.3,3.1,10.5,3.5,15.3,0.8C121.9,186.5,119.8,177.7,113.8,173.4z"/>
<path class="st1" d="M163.9,209.8c-1.7-6.2-10.3,13.2-21.6,13.2s-26.2-11.3-45.8-7.4c-19.4,3.9-10.3,26.1-10.3,26.1
	s42.3,1.7,76.3,0.8C161.3,226.6,165.6,216.1,163.9,209.8z"/>
<path class="st7" d="M185.2,276.9c-7,0.6-14-0.4-14-0.4c-0.6,8.5,6.3,16,16.9,16.7c10.5,0.8,9.9-2.9,10.5-3.3
	c0.6-0.4,10.5,1.8,12.3-1c1.8-2.9-6.8-15.2-7.5-16C203.1,271.7,192.4,276.2,185.2,276.9z"/>
<g id="Head">
	<path class="st8" d="M154.5,44.2c-8.6-18.1-12.8,26.8,5.3,39.7c18.1,12.8,25.8,8,27.2,7.4c1.5-0.6,4.5-25.9,4.5-25.9
		S167.1,70.3,154.5,44.2z"/>
	<path class="st7" d="M158.4,64c-6.3-3.7-9.5-11.1-10.9-17.7c-1.5,10.3,1.5,29.6,12.3,37.4c18.1,12.8,25.8,8,27.2,7.4
		c0.8-0.4,2-7.8,3.1-14.6c-0.2-0.2-0.4-0.4-0.6-0.6C184.4,70.8,171.2,71.3,158.4,64z"/>
	<path class="st8" d="M280.9,25.9C275.1,54.3,250,55.5,250,55.5s9.3,23.6,10.8,23.8c1.5,0.2,10.1,3.1,24.6-13.8
		C299.8,48.8,285,6.2,280.9,25.9z"/>
	<path class="st7" d="M284.4,20.8c1.7,6.3,4,20-1.7,28.6c-7.5,11.7-19.6,14.8-21.6,21.8c-0.6,1.7-1,4.1-1.5,6.6c0.6,1,1,1.7,1.2,1.7
		c1.5,0.2,10.1,3.1,24.6-13.8C297,52.3,289.7,22.4,284.4,20.8z"/>
	<path class="st6" d="M270.8,70.8l5.2,25.5c0,0,41.2,2.3,39-11.1C312.8,72,270.8,70.8,270.8,70.8z"/>
	<path class="st1" d="M277.4,78.6c0,0-2,12.1,4.8,14.2c7,2.3,14,0.4,16.1,0c2-0.4-2.7-1.7-4.1-2.3c-1.5-0.6,4.8,0.4,7.5,1
		c2.7,0.6,10.3-0.4,7-6.2C305.6,80,277.4,78.6,277.4,78.6z"/>
	<path class="st6" d="M243.3,54.1c-29.5,9.3-24.3-3.7-53.5,7.4c-14.4,5.5-12,27.3-12,27.3s-31.6,7.6-33.4,22.2
		c-1.8,14.6,35.5,3.5,35.5,3.5s-0.8,50,21.3,67.1s82.1,1.8,99.8-15s-17.3-76.7-17.3-76.7S272.9,44.8,243.3,54.1z"/>
	<path class="st1" d="M243.3,54.1c-2.9,1-5.6,1.7-8,2c8.5,4.7,21.1,13.6,28.1,28c11.6,23.3,14.4,46.5,7.2,70.6
		c-5,16.3-43.3,22.6-62.1,30.8c25.9,10.1,76.3-3.9,92.4-19.1c17.8-16.8-17.3-76.7-17.3-76.7S272.9,44.8,243.3,54.1z"/>
	<path class="st2" d="M243.2,52.7c-10.5,3.3-16.5,5.2-21.3,5c0.8,4.1,2.7,8.8,6.2,10.7c7.2,3.9,15.9,2.9,17.9,7.4
		c1.8,4.5,3.5,11.1,9.1,12c5.6,1,13.8-3.5,23.1,0.6c2.3,1,4.5,2.3,6.8,3.5c-0.8-1.5-1.2-3.1-1.2-3.1S272.6,43.6,243.2,52.7z"/>
	<path class="st9" d="M185,152.8c0.8,12,6,24.1,14.3,30.5c22.1,17.1,85.7,0.6,103.7-16.3c7.8-7.4,4-23.8-1.5-39.1
		C244.5,124.4,205.4,140.7,185,152.8z"/>
	<path class="st10" d="M295.1,127.5c-0.6,0-1,0-1.7,0c-1.7,0-3.3,0-5,0c-0.4,0-0.8,0-1.2,0c-4.3,0-8.5,0-12.6,0.2
		c0.2,9-1.2,17.8-4,27.1c-4.5,15.5-46.2,23.6-66.2,31.6c25.6,11.5,81.7-3.9,98.2-19.5c7.8-7.4,4-23.8-1.5-39.1
		C299.2,127.7,297.2,127.5,295.1,127.5z"/>
	<path class="st6" d="M197,103.3c-6,1.8-9.5,8.2-7.6,14.2c1.8,6,8.3,9.5,14.3,7.6c6-1.8,9.5-8.2,7.6-14.2
		C209.3,104.7,203,101.4,197,103.3z"/>
	<path class="st2" d="M198,106.4c-4.3,1.2-6.6,5.8-5.3,10.1c1.2,4.3,5.8,6.6,10.1,5.3c4.3-1.2,6.6-5.8,5.3-10.1
		C206.6,107.6,202.1,105.1,198,106.4z"/>
	<path class="st6" d="M203.8,109.4c-1.5,0.2-2.5,1.5-2.3,2.9c0.2,1.5,1.5,2.5,2.9,2.3c1.5-0.2,2.5-1.5,2.3-2.9
		C206.4,110.1,205.2,109.2,203.8,109.4z"/>
	<path class="st6" d="M268.9,90.3c-6,1.8-9.5,8.2-7.6,14.2c1.8,6,8.3,9.5,14.3,7.6s9.5-8.2,7.6-14.2
		C281.2,91.9,274.9,88.4,268.9,90.3z"/>
	<path class="st2" d="M269.9,93.6c-4.3,1.2-6.6,5.8-5.3,10.1c1.3,4.3,5.8,6.6,10.1,5.3c4.3-1.2,6.6-5.8,5.3-10.1
		C278.6,94.6,274.1,92.1,269.9,93.6z"/>
	<path class="st6" d="M275.7,96.4c-1.5,0.2-2.5,1.5-2.3,2.9c0.2,1.5,1.5,2.5,2.9,2.3c1.5-0.2,2.5-1.5,2.3-2.9
		C278.4,97.3,277.2,96.3,275.7,96.4z"/>
	<path class="st1" d="M158,105.7c-8,4.1-10.8,7.6-9.1,9.3c1.7,1.7,12.8,1,15.3,0.2c2.5-0.8,8.6-5.3,8.3-4.3c-0.4,1-4.3,3.3-2.3,3.3
		c1.8,0,7-1.2,9.5-2.5c0,0-0.6-10.1-1.7-11.1C176.9,99.8,165.8,101.6,158,105.7z"/>
	<path class="st11" d="M221.3,144.6c-4.8,3.1-0.4,8.2,3.5,8c4-0.4,6-2.7,8-1c2,1.7,6.2-0.2,4.1-3.3
		C237,148.3,228.3,139.9,221.3,144.6z"/>
	<path class="st11" d="M268.7,137.2c-8-2.9-14.4,7.4-14.4,7.4c-1.2,3.5,3.3,4.1,4.8,2c1.7-2,4.1-0.4,8-1
		C270.9,144.9,274.1,139,268.7,137.2z"/>
</g>
</svg>
