<?xml version="1.0" encoding="utf-8"?>
<!-- Generator: Adobe Illustrator 22.0.0, SVG Export Plug-In . SVG Version: 6.00 Build 0)  -->
<svg version="1.1" id="Слой_1" xmlns="http://www.w3.org/2000/svg" xmlns:xlink="http://www.w3.org/1999/xlink" x="0px" y="0px"
	 viewBox="0 0 64 64" style="enable-background:new 0 0 64 64;" xml:space="preserve">
<style type="text/css">
	.st0{display:none;fill:url(#SVGID_1_);}
	.st1{fill:#60825B;}
</style>
<radialGradient id="SVGID_1_" cx="33.0001" cy="34" r="28.6097" gradientTransform="matrix(1 0 0 -1 0 66)" gradientUnits="userSpaceOnUse">
	<stop  offset="0" style="stop-color:#AFEEFF"/>
	<stop  offset="0.193" style="stop-color:#BBF1FF"/>
	<stop  offset="0.703" style="stop-color:#D7F8FF"/>
	<stop  offset="1" style="stop-color:#E1FAFF"/>
</radialGradient>
<path class="st0" d="M53,34h5.2c2.9,0,5.4-2.1,5.7-4.9c0.3-3.3-2.3-6.1-5.5-6.1H39.2c-1.6,0-3.1-1.2-3.2-2.8c-0.1-1.7,1.3-3.2,3-3.2
	h5.2c2.9,0,5.4-2.1,5.7-4.9C50.3,8.8,47.7,6,44.5,6H33h-7.5h-15C7.5,6,5,8.5,5,11.5l0,0c0,3,2.5,5.5,5.5,5.5H14c1.1,0,2,0.9,2,2l0,0
	c0,1.1-0.9,2-2,2H6.7c-2.3,0-4.5,1.7-4.7,4c-0.3,2.7,1.9,5,4.5,5h6.3c1.6,0,3.1,1.2,3.2,2.8c0.1,1.7-1.3,3.2-3,3.2H9.7
	c-2.3,0-4.5,1.7-4.7,4c-0.3,2.7,1.9,5,4.5,5h4.4c1,0,1.9,0.7,2.1,1.7c0.2,1.3-0.8,2.3-2,2.3H9.7c-2.3,0-4.5,1.7-4.7,4
	c-0.3,2.7,1.9,5,4.5,5h22c0.1,0,0.2,0,0.3,0c0.1,0,0.2,0,0.3,0h17.4c1.7,0,3.2-1.1,3.5-2.8c0.5-2.2-1.3-4.2-3.4-4.2h-5.4
	c-1,0-1.9-0.7-2.1-1.7c-0.2-1.3,0.8-2.3,2-2.3h12.3c2.3,0,4.5-1.7,4.7-4c0.3-2.7-1.9-5-4.5-5h-3.4c-1,0-1.9-0.7-2.1-1.7
	C50.8,35.1,51.8,34,53,34z"/>
<path class="st1" d="M52,15L25.5,41.5L12,28c-1.4-1.4-3.6-1.4-5,0l0,0c-1.4,1.4-1.4,3.6,0,5l15.8,15.9c1.5,1.5,3.8,1.5,5.3,0L57,20
	c1.4-1.4,1.4-3.6,0-5l0,0C55.6,13.7,53.3,13.7,52,15z"/>
</svg>
