<?xml version="1.0" encoding="utf-8"?>
<!-- Generator: Adobe Illustrator 22.0.0, SVG Export Plug-In . SVG Version: 6.00 Build 0)  -->
<svg version="1.1" id="Слой_1" xmlns="http://www.w3.org/2000/svg" xmlns:xlink="http://www.w3.org/1999/xlink" x="0px" y="0px"
	 viewBox="0 0 398 360" style="enable-background:new 0 0 398 360;" xml:space="preserve">
<style type="text/css">
	.st0{fill:#444342;}
	.st1{fill:#71706F;}
	.st2{fill:#848382;}
	.st3{fill:#5F5E5D;}
	.st4{fill:#7A7A7A;}
	.st5{fill:#BCBDBD;}
	.st6{fill:#C9C7C6;}
	.st7{fill:#B8B8B8;}
	.st8{fill:#737F7E;}
	.st9{fill:#677473;}
	.st10{fill:#8B9594;}
	.st11{fill:#EBEBEB;}
	.st12{fill:#796D6D;}
	.st13{fill:#BFBABA;}
	.st14{fill:#797979;}
	.st15{fill:#555555;}
	.st16{fill:#8DE555;}
	.st17{fill:#547F00;}
	.st18{fill:#E74A33;}
	.st19{fill:#3B3B3B;}
	.st20{fill:#545454;}
	.st21{fill:#3F3F3F;}
</style>
<path class="st0" d="M144.7,341.6l-85.8-48.8v-5.2l85.8,48.8V341.6z"/>
<path class="st1" d="M58.9,287.7l226.9-128.8l85.8,48.7L144.7,336.4L58.9,287.7z"/>
<path class="st2" d="M66.1,290.2l78.5,44l222.5-126.7l-75.5-45.4l80,45.4L144.7,336.4l-85.8-48.8L66.1,290.2z"/>
<path class="st3" d="M371.6,212.6l-226.9,129v-5.2l226.9-129V212.6z"/>
<path class="st4" d="M283.9,33.6l-5.8-3.3v127.4l5.8,3.3V33.6z"/>
<path class="st5" d="M283.9,33.6l-5.8-3.3l5.8-3.3l5.9,3.3L283.9,33.6z"/>
<path class="st6" d="M283.9,33.6l5.9-3.3v127.4l-5.9,3.3V33.6z"/>
<path class="st7" d="M385.4,140.7c0-1-0.7-2.1-1.5-2.6c-0.4-0.2-0.7-0.2-1-0.1c0,0-0.1,0-0.1,0.1l-101-56l0.7,3.5L385,141.7
	C385.2,141.5,385.4,141.1,385.4,140.7z"/>
<path class="st8" d="M391.5,94.7l-5.8-3.3v127.4l5.8,3.3V94.7z"/>
<path class="st9" d="M391.5,94.7l-5.8-3.3l5.8-3.3l5.8,3.3L391.5,94.7z"/>
<path class="st10" d="M391.5,94.7l5.8-3.3v127.4l-5.8,3.3V94.7z"/>
<path class="st7" d="M271.7,45.2c-1.5,0.4-3.1,1.1-4.8,1.9l-202.1,114c-2.4,1.3-4.8,3.2-6.8,5.4c0,0,0,0-0.1,0.1
	c-6.3,6.5-10.8,16.2-10.8,24.3v66c0,10.9,7.9,15.3,17.6,9.9l202.1-114c8.4-4.8,15.5-15.3,17.3-25.2c0.2-1.5,0.4-3.1,0.4-4.5V57
	C284.6,47.9,279.1,43.3,271.7,45.2z M64.8,166.6L267,52.6c7.1-4,12.8-0.8,12.8,7.1v66c0,8-5.8,17.6-12.8,21.7l-202.1,114
	c-7.1,4-12.8,0.8-12.8-7.1v-66C51.9,180.3,57.7,170.5,64.8,166.6z"/>
<path class="st11" d="M271.7,45.2c-1,0.4-1.9,0.8-3,1.3L66.3,160.9c-1.8,1.1-3.6,2.4-5.2,4c0,0,0,0-0.1,0.1
	c-6.3,6.1-10.8,15.3-10.8,23.2v66.6c0,10,7.3,14,16.2,9L269,149.5c7.3-4,13.3-12.8,15.5-21.3c0.2-1.5,0.4-3.1,0.4-4.5V57
	C284.6,47.9,279.1,43.3,271.7,45.2z M283.2,123.3c0,8.8-6.4,19.7-14.3,24.2L66.3,261.9c-7.9,4.4-14.3,1-14.3-8V187
	c0-8.8,6.4-19.7,14.3-24.2L268.8,48.6c7.9-4.4,14.3-1,14.3,8v66.7C283,123.3,283.2,123.3,283.2,123.3z"/>
<path class="st7" d="M281.4,93.1c0-1-0.7-2.1-1.5-2.6c-0.4-0.2-0.7-0.2-1-0.1c0,0-0.1,0-0.1,0.1L51.9,219.3v4.9L280.9,94
	C281.3,93.9,281.4,93.5,281.4,93.1z"/>
<path class="st4" d="M43.7,170.2l-5.8-3.3v127.4l5.8,3.3V170.2z"/>
<path class="st5" d="M43.7,170.2l-5.8-3.3l5.8-3.3l5.8,3.3L43.7,170.2z"/>
<path class="st6" d="M43.7,170.2l5.8-3.3v127.4l-5.8,3.3V170.2z"/>
<path class="st4" d="M151.3,231.3l-5.8-3.3v127.4l5.8,3.3V231.3z"/>
<path class="st5" d="M151.3,231.3l-5.8-3.3l5.8-3.3l5.8,3.3L151.3,231.3z"/>
<path class="st6" d="M151.3,231.3l5.8-3.3v127.4l-5.8,3.3V231.3z"/>
<path class="st7" d="M376.4,108.3c-1.5,0.4-3.1,1.1-4.8,1.9L171,224.2c-2.4,1.3-4.6,3.2-6.7,5.4c0,0,0,0-0.1,0.1
	c-6.3,6.5-10.7,16.2-10.7,24.3v66c0,10.9,7.9,15.3,17.5,9.9l200.7-114c8.3-4.8,15.3-15.3,17.1-25.2c0.2-1.5,0.4-3.1,0.4-4.5v-66
	C389.3,111,383.9,106.4,376.4,108.3z M171.1,229.6l200.7-114c7-4,12.7-0.8,12.7,7.1v66c0,8-5.7,17.6-12.7,21.7l-200.7,114
	c-7,4-12.7,0.8-12.7-7.1v-66C158.4,243.3,164.1,233.7,171.1,229.6z"/>
<path class="st7" d="M371.8,210.5l-0.5,0.2v0.6h4v-3.5C374.3,208.9,373.1,209.8,371.8,210.5z M355,220v0.6h4v-2.9L355,220z
	 M338.6,229.4v0.5h4V227L338.6,229.4z M322.3,238.6v0.5h4v-2.7L322.3,238.6z M305.9,248v0.4h4v-2.7L305.9,248z M289.5,257.2v0.4h4
	V255L289.5,257.2z M290.5,256.7v0.2h4v-2.5L290.5,256.7z M171.1,324.5c-0.5,0.4-1.1,0.6-1.5,0.8v0.4h4v-2.5L171.1,324.5z"/>
<path class="st11" d="M376.4,108.3c-1,0.4-1.9,0.8-3,1.3L172.6,223.9c-1.8,1.1-3.6,2.4-5.2,4c0,0,0,0-0.1,0.1
	c-6.3,6.1-10.7,15.3-10.7,23.2V318c0,10,7.3,14,16.1,9l200.9-114.3c7.1-4,13.2-12.8,15.3-21.3c0.2-1.5,0.4-3.1,0.4-4.5v-66.7
	C389.3,111,383.9,106.4,376.4,108.3z M387.9,186.5c0,8.8-6.3,19.7-14.2,24.2L172.8,324.9c-7.9,4.4-14.2,1-14.2-8V250
	c0-8.8,6.3-19.7,14.2-24.2l200.8-114.1c7.9-4.4,14.2-1,14.2,8v66.7h0.1L387.9,186.5L387.9,186.5z"/>
<path class="st7" d="M387.9,156.1c0-1-0.7-2.1-1.5-2.6c-0.4-0.2-0.7-0.2-1-0.1c0,0-0.1,0-0.1,0.1L158.4,282.3v4.9l229-130.2
	C387.6,157,387.9,156.6,387.9,156.1z"/>
<path class="st6" d="M204.9,227.4l32.5-20.7l18.9,62.2l-32.6,20L204.9,227.4z"/>
<path class="st4" d="M223.6,288.9l-39-23.4l-8.7-41.9l29.1,3.8l9.4,30.8L223.6,288.9z"/>
<path class="st5" d="M204.9,227.4l-29.1-3.8l32.5-20.7l29.1,3.8L204.9,227.4z"/>
<path class="st12" d="M223.6,288.9L206,227.7l30.9-20.1l19.3,61.3l-18.9-62.2L204,227.3L223.6,288.9z"/>
<path class="st13" d="M226.1,273.3l20.5-12.7L233.2,217l-20.3,13L226.1,273.3z"/>
<path class="st14" d="M225.9,273.5l-13.3-43.7l0.1-0.1l20.7-13.2l13.3,44l-0.1,0.1L225.9,273.5z M213.1,230l13.1,42.9l20.1-12.4
	l-13.2-43.3L213.1,230z"/>
<path class="st15" d="M237.5,247.3l2.4-1.5l-0.7-2.4l-2.4,1.5L237.5,247.3z"/>
<path class="st16" d="M237.7,246.4l1.3-0.8l-0.4-1.3l-1.3,0.8L237.7,246.4z"/>
<path class="st15" d="M238.4,250.6l2.4-1.5l-0.7-2.4l-2.4,1.5L238.4,250.6z"/>
<path class="st17" d="M238.7,249.6l1.3-0.8l-0.5-1.3l-1.3,0.8L238.7,249.6z"/>
<path class="st15" d="M239.5,253.9l2.4-1.5l-0.7-2.4l-2.4,1.5L239.5,253.9z"/>
<path class="st18" d="M239.7,253.1l1.3-0.8l-0.4-1.3l-1.3,0.8L239.7,253.1z"/>
<path class="st19" d="M221.5,252.5l17.1-10.7l-6.2-20.3l-17,10.8L221.5,252.5z"/>
<g id="display">
	<path class="st20" d="M221.5,250.2l14.9-9.4l-5-16.3l-14.9,9.4L221.5,250.2z"/>
	<path class="st21" d="M216.5,234l4.9,15.9l5.4-3.3l-4-16.5L216.5,234z"/>
</g>
<g id="right-door">
	<path class="st7" d="M94.9,222.4v66c0,1.4,0.1,3,0.4,4.5c1.7,9.9,8.8,20.5,17.1,25.2l14.9,8.4c9.6,5.5,17.5,1.1,17.5-9.9v-66
		c0-8.2-4.4-17.7-10.7-24.3c0,0,0,0-0.1-0.1c-2-2.1-4.4-3.9-6.7-5.4l-14.9-8.4c-1.5-1-3.2-1.5-4.8-1.9
		C100.3,208.7,94.9,213.2,94.9,222.4z M140.2,248v66c0,8-5.7,11.2-12.7,7.1l-14.9-8.4c-7-4-12.7-13.7-12.7-21.7v-66
		c0-8,5.7-11.2,12.7-7.1l14.8,8.4C134.4,230.4,140.2,240.1,140.2,248z"/>
	<path class="st11" d="M94.9,222.4v66.7c0,1.4,0.1,3,0.4,4.5c-0.5,8.8,8.2,17.3,15.3,21.3l15.2,8.8c8.9,5,16.1,1.1,16.1-9V248
		c0-7.9-4.5-17.1-10.7-23.2c0,0,0,0-0.1-0.1c-1.7-1.5-3.5-3-5.2-4l-15.2-8.7c-1-0.6-1.9-1.1-3-1.3
		C100.3,208.7,94.9,213.2,94.9,222.4z M96.5,221.9c0-8.8,6.3-12.4,14.3-8l15.2,8.8c7.9,4.4,14.3,15.3,14.3,24.2v66.7
		c0,8.8-6.3,12.4-14.3,8l-15.3-8.8c-7.9-4.4-14.3-15.3-14.3-24.2L96.5,221.9L96.5,221.9z"/>
	<path class="st7" d="M96.5,258.4c0-1,0.7-2.1,1.5-2.6c0.4-0.2,0.7-0.2,1-0.1c0,0,0.1,0,0.1,0.1l41,23.3v4.9L97,259.4
		C96.6,259.3,96.5,258.9,96.5,258.4z"/>
</g>
<g id="left-door">
	<path class="st7" d="M47.9,197.4v63.3c0,1.3,0.1,2.9,0.4,4.3c1.6,9.5,8,19.7,15.6,24.2l13.6,8.1c8.8,5.3,16,1.1,16-9.5v-63.2
		c0-7.9-4-17-9.8-23.3c0,0,0,0-0.1-0.1c-1.8-2-4-3.7-6.1-5.2l-13.6-8.1c-1.4-1-2.9-1.4-4.4-1.8C52.8,184.2,47.9,188.7,47.9,197.4z
		 M89.2,222v63.3c0,7.7-5.2,10.7-11.6,6.8l-13.6-8c-6.4-3.8-11.6-13.1-11.6-20.8V200c0-7.7,5.2-10.7,11.6-6.8l13.6,8.1
		C83.9,205.1,89.2,214.3,89.2,222z"/>
	<path class="st7" d="M50.6,232.1c0-1,0.6-2,1.4-2.5c0.4-0.2,0.6-0.2,0.9-0.1c0,0,0.1,0,0.1,0.1L90.4,252v4.7l-39.5-23.6
		C50.6,232.9,50.6,232.6,50.6,232.1z"/>
	<path class="st11" d="M49.1,197.7v64c0,1.3,0.1,2.9,0.4,4.3c1.8,8.1,7.4,16.6,14,20.4l13.9,8.4c8.1,4.8,14.7,1.1,14.7-8.6v-64
		c0-7.6-4.1-16.4-9.8-22.3c0,0,0,0-0.1-0.1c-1.6-1.4-3.2-2.9-4.8-3.8l-13.9-8.4c-0.9-0.6-1.7-1.1-2.7-1.2
		C54,184.5,49.1,189,49.1,197.7z M50.4,197.2c0-8.4,5.8-11.9,13.1-7.7l13.9,8.4c7.2,4.2,13.1,14.7,13.1,23.2v64
		c0,8.4-5.8,11.9-13.1,7.7l-13.9-8.4c-7.2-4.2-13.1-14.7-13.1-23.2C50.4,261.2,50.4,197.2,50.4,197.2z"/>
</g>
</svg>
